<svg width="266" height="113" viewBox="0 0 266 113" fill="none" xmlns="http://www.w3.org/2000/svg">
<path fill-rule="evenodd" clip-rule="evenodd" d="M250.38 112.095H215.145L204.57 100.53H22.275L0 85.32V11.7L17.325 0H196.74L211.14 22.32H255.105L265.68 35.91V97.83L250.38 112.095ZM215.685 110.79H249.84L264.33 97.29V36.36L254.43 23.625H210.42L196.02 1.30501H17.685L1.26 12.42V84.645L22.635 99.225H205.11L215.685 110.79Z" fill="white"/>
<g opacity="0.2">
<path fill-rule="evenodd" clip-rule="evenodd" d="M248.939 106.245H217.348L207.404 95.4002L27.0435 95.2202L6.47852 81.8102V15.4802L22.0485 4.9502H193.948L208.079 27.4052H251.639L261.179 39.6002V94.9502L248.939 106.245ZM217.889 104.94H248.398L259.829 94.3652V40.0502L251.008 28.7102H207.358L193.229 6.25521H22.4085L7.78352 16.1552V81.0902L27.4485 93.9152L207.944 94.0952L217.889 104.94Z" fill="white"/>
</g>
<path d="M223.785 54.9007H215.01V41.8057H223.785V54.9007Z" fill="white"/>
<path d="M237.15 54.9007H228.42V41.8057H237.15V54.9007Z" fill="white"/>
<path d="M250.56 54.9007H241.785V41.8057H250.56V54.9007Z" fill="white"/>
<path d="M223.785 71.4152H215.01V58.3652H223.785V71.4152Z" fill="white"/>
<path d="M237.15 71.4152H228.42V58.3652H237.15V71.4152Z" fill="white"/>
<path d="M250.56 71.4152H241.785V58.3652H250.56V71.4152Z" fill="white"/>
<path d="M223.785 87.9758H215.01V74.8809H223.785V87.9758Z" fill="white"/>
<path d="M237.15 87.9758H228.42V74.8809H237.15V87.9758Z" fill="white"/>
<path opacity="0.2" d="M250.56 87.9758H241.785V74.8809H250.56V87.9758Z" fill="white"/>
<path d="M247.77 87.9758H241.785V74.8809H247.77V87.9758Z" fill="white"/>
</svg>
