<svg width="328" height="37" viewBox="0 0 328 37" fill="none" xmlns="http://www.w3.org/2000/svg">
<path d="M105.986 17.5771L111.791 23.3822H115.234L109.451 17.5771H105.986Z" fill="#5D5D5D"/>
<path d="M111.611 17.5771L117.416 23.3822H120.859L115.076 17.5771H111.611Z" fill="#5D5D5D"/>
<path d="M117.26 17.5771L123.042 23.3822H126.485L120.702 17.5771H117.26Z" fill="#5D5D5D"/>
<path d="M122.885 17.5771L128.667 23.3822H132.11L126.327 17.5771H122.885Z" fill="#5D5D5D"/>
<path d="M128.51 17.5771L134.315 23.3822H137.757L131.952 17.5771H128.51Z" fill="#5D5D5D"/>
<path d="M134.135 17.5771L139.94 23.3822H143.382L137.6 17.5771H134.135Z" fill="#5D5D5D"/>
<path d="M152.966 27.32L139.624 14H19.9912L3.29626 30.695C2.44126 30.2225 1.36125 30.335 0.64125 31.055C-0.21375 31.91 -0.21375 33.3275 0.64125 34.1825C1.49625 35.0375 2.89123 35.0375 3.76873 34.1825C4.48873 33.4625 4.60125 32.3825 4.12875 31.5275L20.4862 15.17H139.129L152.471 28.49H240.919V27.32H152.966Z" fill="#5D5D5D"/>
<path d="M41.7719 17.5771L39.8594 19.5122H105.244L103.062 17.5771H41.7719Z" fill="#5D5D5D"/>
<line x1="239" y1="27.9" x2="328" y2="27.9" stroke="#626262" stroke-width="1.2"/>
<path d="M159.07 15.4883H156.645V23H155.66V15.4883H153.24V14.5977H159.07V15.4883ZM169.711 23H168.727V19.168H164.379V23H163.395V14.5977H164.379V18.2832H168.727V14.5977H169.711V23ZM181.418 23H180.328L179.438 20.6445H175.875L175.037 23H173.941L177.164 14.5977H178.184L181.418 23ZM179.115 19.7598L177.797 16.1797C177.754 16.0625 177.711 15.875 177.668 15.6172H177.645C177.605 15.8555 177.561 16.043 177.51 16.1797L176.203 19.7598H179.115ZM192.434 23H191.227L186.902 16.3027C186.793 16.1348 186.703 15.959 186.633 15.7754H186.598C186.629 15.9551 186.645 16.3398 186.645 16.9297V23H185.66V14.5977H186.938L191.145 21.1895C191.32 21.4629 191.434 21.6504 191.484 21.752H191.508C191.469 21.5098 191.449 21.0977 191.449 20.5156V14.5977H192.434V23ZM203.484 23H202.113L198.867 19.1562C198.746 19.0117 198.672 18.9141 198.645 18.8633H198.621V23H197.637V14.5977H198.621V18.5469H198.645C198.699 18.4609 198.773 18.3652 198.867 18.2598L202.008 14.5977H203.232L199.629 18.6289L203.484 23ZM207.205 22.6602V21.5C207.338 21.6172 207.496 21.7227 207.68 21.8164C207.867 21.9102 208.062 21.9902 208.266 22.0566C208.473 22.1191 208.68 22.168 208.887 22.2031C209.094 22.2383 209.285 22.2559 209.461 22.2559C210.066 22.2559 210.518 22.1445 210.814 21.9219C211.115 21.6953 211.266 21.3711 211.266 20.9492C211.266 20.7227 211.215 20.5254 211.113 20.3574C211.016 20.1895 210.879 20.0371 210.703 19.9004C210.527 19.7598 210.318 19.627 210.076 19.502C209.838 19.373 209.58 19.2383 209.303 19.0977C209.01 18.9492 208.736 18.7988 208.482 18.6465C208.229 18.4941 208.008 18.3262 207.82 18.1426C207.633 17.959 207.484 17.752 207.375 17.5215C207.27 17.2871 207.217 17.0137 207.217 16.7012C207.217 16.3184 207.301 15.9863 207.469 15.7051C207.637 15.4199 207.857 15.1855 208.131 15.002C208.404 14.8184 208.715 14.6816 209.062 14.5918C209.414 14.502 209.771 14.457 210.135 14.457C210.963 14.457 211.566 14.5566 211.945 14.7559V15.8633C211.449 15.5195 210.812 15.3477 210.035 15.3477C209.82 15.3477 209.605 15.3711 209.391 15.418C209.176 15.4609 208.984 15.5332 208.816 15.6348C208.648 15.7363 208.512 15.8672 208.406 16.0273C208.301 16.1875 208.248 16.3828 208.248 16.6133C208.248 16.8281 208.287 17.0137 208.365 17.1699C208.447 17.3262 208.566 17.4688 208.723 17.5977C208.879 17.7266 209.068 17.8516 209.291 17.9727C209.518 18.0938 209.777 18.2266 210.07 18.3711C210.371 18.5195 210.656 18.6758 210.926 18.8398C211.195 19.0039 211.432 19.1855 211.635 19.3848C211.838 19.584 211.998 19.8047 212.115 20.0469C212.236 20.2891 212.297 20.5664 212.297 20.8789C212.297 21.293 212.215 21.6445 212.051 21.9336C211.891 22.2188 211.672 22.4512 211.395 22.6309C211.121 22.8105 210.805 22.9395 210.445 23.0176C210.086 23.0996 209.707 23.1406 209.309 23.1406C209.176 23.1406 209.012 23.1289 208.816 23.1055C208.621 23.0859 208.422 23.0547 208.219 23.0117C208.016 22.9727 207.822 22.9238 207.639 22.8652C207.459 22.8027 207.314 22.7344 207.205 22.6602ZM227.531 15.4883H224.25V18.3945H227.285V19.2793H224.25V23H223.266V14.5977H227.531V15.4883ZM235.512 23.1406C234.32 23.1406 233.365 22.748 232.646 21.9629C231.932 21.1777 231.574 20.1562 231.574 18.8984C231.574 17.5469 231.939 16.4688 232.67 15.6641C233.4 14.8594 234.395 14.457 235.652 14.457C236.812 14.457 237.746 14.8477 238.453 15.6289C239.164 16.4102 239.52 17.4316 239.52 18.6934C239.52 20.0645 239.156 21.1484 238.43 21.9453C237.703 22.7422 236.73 23.1406 235.512 23.1406ZM235.582 15.3477C234.699 15.3477 233.982 15.666 233.432 16.3027C232.881 16.9395 232.605 17.7754 232.605 18.8105C232.605 19.8457 232.873 20.6797 233.408 21.3125C233.947 21.9414 234.648 22.2559 235.512 22.2559C236.434 22.2559 237.16 21.9551 237.691 21.3535C238.223 20.752 238.488 19.9102 238.488 18.8281C238.488 17.7188 238.23 16.8613 237.715 16.2559C237.199 15.6504 236.488 15.3477 235.582 15.3477ZM250.195 23H249.023L247.617 20.6445C247.488 20.4258 247.363 20.2402 247.242 20.0879C247.121 19.9316 246.996 19.8047 246.867 19.707C246.742 19.6094 246.605 19.5391 246.457 19.4961C246.312 19.4492 246.148 19.4258 245.965 19.4258H245.156V23H244.172V14.5977H246.68C247.047 14.5977 247.385 14.6445 247.693 14.7383C248.006 14.8281 248.275 14.9668 248.502 15.1543C248.732 15.3418 248.912 15.5762 249.041 15.8574C249.17 16.1348 249.234 16.4609 249.234 16.8359C249.234 17.1289 249.189 17.3984 249.1 17.6445C249.014 17.8867 248.889 18.1035 248.725 18.2949C248.564 18.4863 248.369 18.6504 248.139 18.7871C247.912 18.9199 247.656 19.0234 247.371 19.0977V19.1211C247.512 19.1836 247.633 19.2559 247.734 19.3379C247.84 19.416 247.939 19.5098 248.033 19.6191C248.127 19.7285 248.219 19.8535 248.309 19.9941C248.402 20.1309 248.506 20.291 248.619 20.4746L250.195 23ZM245.156 15.4883V18.5352H246.492C246.738 18.5352 246.965 18.498 247.172 18.4238C247.383 18.3496 247.564 18.2441 247.717 18.1074C247.869 17.9668 247.988 17.7969 248.074 17.5977C248.16 17.3945 248.203 17.168 248.203 16.918C248.203 16.4688 248.057 16.1191 247.764 15.8691C247.475 15.6152 247.055 15.4883 246.504 15.4883H245.156ZM260.256 22.6602V21.5C260.389 21.6172 260.547 21.7227 260.73 21.8164C260.918 21.9102 261.113 21.9902 261.316 22.0566C261.523 22.1191 261.73 22.168 261.938 22.2031C262.145 22.2383 262.336 22.2559 262.512 22.2559C263.117 22.2559 263.568 22.1445 263.865 21.9219C264.166 21.6953 264.316 21.3711 264.316 20.9492C264.316 20.7227 264.266 20.5254 264.164 20.3574C264.066 20.1895 263.93 20.0371 263.754 19.9004C263.578 19.7598 263.369 19.627 263.127 19.502C262.889 19.373 262.631 19.2383 262.354 19.0977C262.061 18.9492 261.787 18.7988 261.533 18.6465C261.279 18.4941 261.059 18.3262 260.871 18.1426C260.684 17.959 260.535 17.752 260.426 17.5215C260.32 17.2871 260.268 17.0137 260.268 16.7012C260.268 16.3184 260.352 15.9863 260.52 15.7051C260.688 15.4199 260.908 15.1855 261.182 15.002C261.455 14.8184 261.766 14.6816 262.113 14.5918C262.465 14.502 262.822 14.457 263.186 14.457C264.014 14.457 264.617 14.5566 264.996 14.7559V15.8633C264.5 15.5195 263.863 15.3477 263.086 15.3477C262.871 15.3477 262.656 15.3711 262.441 15.418C262.227 15.4609 262.035 15.5332 261.867 15.6348C261.699 15.7363 261.562 15.8672 261.457 16.0273C261.352 16.1875 261.299 16.3828 261.299 16.6133C261.299 16.8281 261.338 17.0137 261.416 17.1699C261.498 17.3262 261.617 17.4688 261.773 17.5977C261.93 17.7266 262.119 17.8516 262.342 17.9727C262.568 18.0938 262.828 18.2266 263.121 18.3711C263.422 18.5195 263.707 18.6758 263.977 18.8398C264.246 19.0039 264.482 19.1855 264.686 19.3848C264.889 19.584 265.049 19.8047 265.166 20.0469C265.287 20.2891 265.348 20.5664 265.348 20.8789C265.348 21.293 265.266 21.6445 265.102 21.9336C264.941 22.2188 264.723 22.4512 264.445 22.6309C264.172 22.8105 263.855 22.9395 263.496 23.0176C263.137 23.0996 262.758 23.1406 262.359 23.1406C262.227 23.1406 262.062 23.1289 261.867 23.1055C261.672 23.0859 261.473 23.0547 261.27 23.0117C261.066 22.9727 260.873 22.9238 260.689 22.8652C260.51 22.8027 260.365 22.7344 260.256 22.6602ZM276.17 19.6016C276.17 21.9609 275.105 23.1406 272.977 23.1406C270.938 23.1406 269.918 22.0059 269.918 19.7363V14.5977H270.902V19.6719C270.902 21.3945 271.629 22.2559 273.082 22.2559C274.484 22.2559 275.186 21.4238 275.186 19.7598V14.5977H276.17V19.6016ZM282.258 19.8242V23H281.273V14.5977H283.582C284.48 14.5977 285.176 14.8164 285.668 15.2539C286.164 15.6914 286.412 16.3086 286.412 17.1055C286.412 17.9023 286.137 18.5547 285.586 19.0625C285.039 19.5703 284.299 19.8242 283.365 19.8242H282.258ZM282.258 15.4883V18.9336H283.289C283.969 18.9336 284.486 18.7793 284.842 18.4707C285.201 18.1582 285.381 17.7188 285.381 17.1523C285.381 16.043 284.725 15.4883 283.412 15.4883H282.258ZM291.984 19.8242V23H291V14.5977H293.309C294.207 14.5977 294.902 14.8164 295.395 15.2539C295.891 15.6914 296.139 16.3086 296.139 17.1055C296.139 17.9023 295.863 18.5547 295.312 19.0625C294.766 19.5703 294.025 19.8242 293.092 19.8242H291.984ZM291.984 15.4883V18.9336H293.016C293.695 18.9336 294.213 18.7793 294.568 18.4707C294.928 18.1582 295.107 17.7188 295.107 17.1523C295.107 16.043 294.451 15.4883 293.139 15.4883H291.984ZM304.113 23.1406C302.922 23.1406 301.967 22.748 301.248 21.9629C300.533 21.1777 300.176 20.1562 300.176 18.8984C300.176 17.5469 300.541 16.4688 301.271 15.6641C302.002 14.8594 302.996 14.457 304.254 14.457C305.414 14.457 306.348 14.8477 307.055 15.6289C307.766 16.4102 308.121 17.4316 308.121 18.6934C308.121 20.0645 307.758 21.1484 307.031 21.9453C306.305 22.7422 305.332 23.1406 304.113 23.1406ZM304.184 15.3477C303.301 15.3477 302.584 15.666 302.033 16.3027C301.482 16.9395 301.207 17.7754 301.207 18.8105C301.207 19.8457 301.475 20.6797 302.01 21.3125C302.549 21.9414 303.25 22.2559 304.113 22.2559C305.035 22.2559 305.762 21.9551 306.293 21.3535C306.824 20.752 307.09 19.9102 307.09 18.8281C307.09 17.7188 306.832 16.8613 306.316 16.2559C305.801 15.6504 305.09 15.3477 304.184 15.3477ZM318.797 23H317.625L316.219 20.6445C316.09 20.4258 315.965 20.2402 315.844 20.0879C315.723 19.9316 315.598 19.8047 315.469 19.707C315.344 19.6094 315.207 19.5391 315.059 19.4961C314.914 19.4492 314.75 19.4258 314.566 19.4258H313.758V23H312.773V14.5977H315.281C315.648 14.5977 315.986 14.6445 316.295 14.7383C316.607 14.8281 316.877 14.9668 317.104 15.1543C317.334 15.3418 317.514 15.5762 317.643 15.8574C317.771 16.1348 317.836 16.4609 317.836 16.8359C317.836 17.1289 317.791 17.3984 317.701 17.6445C317.615 17.8867 317.49 18.1035 317.326 18.2949C317.166 18.4863 316.971 18.6504 316.74 18.7871C316.514 18.9199 316.258 19.0234 315.973 19.0977V19.1211C316.113 19.1836 316.234 19.2559 316.336 19.3379C316.441 19.416 316.541 19.5098 316.635 19.6191C316.729 19.7285 316.82 19.8535 316.91 19.9941C317.004 20.1309 317.107 20.291 317.221 20.4746L318.797 23ZM313.758 15.4883V18.5352H315.094C315.34 18.5352 315.566 18.498 315.773 18.4238C315.984 18.3496 316.166 18.2441 316.318 18.1074C316.471 17.9668 316.59 17.7969 316.676 17.5977C316.762 17.3945 316.805 17.168 316.805 16.918C316.805 16.4688 316.658 16.1191 316.365 15.8691C316.076 15.6152 315.656 15.4883 315.105 15.4883H313.758ZM327.387 15.4883H324.961V23H323.977V15.4883H321.557V14.5977H327.387V15.4883Z" fill="url(#paint0_linear_96_96)"/>
<defs>
<linearGradient id="paint0_linear_96_96" x1="153" y1="18.5" x2="328" y2="18.5" gradientUnits="userSpaceOnUse">
<stop stop-color="white"/>
<stop offset="1" stop-color="#999999"/>
</linearGradient>
</defs>
</svg>
